<svg width="597" height="597" viewBox="0 0 597 597" fill="none" xmlns="http://www.w3.org/2000/svg">
<circle cx="298.5" cy="298.5" r="298.5" fill="url(#paint0_linear_203_28)"/>
<g clip-path="url(#clip0_203_28)">
<path d="M298.5 68C169.489 68 65 172.488 65 301.497C65 411.231 140.296 502.305 241.884 527.98C240.711 525.059 240.135 520.965 240.135 516.891V477.187H210.942C195.184 477.187 180.578 470.192 174.159 457.335C166.568 443.325 165.395 421.724 146.139 408.29C140.296 403.62 144.966 398.95 151.385 399.527C163.646 403.024 173.563 411.212 182.903 423.453C192.243 435.714 196.336 438.635 213.844 438.635C222.011 438.635 234.849 438.059 246.534 436.29C252.953 419.935 264.041 405.349 277.475 398.354C199.258 389.014 161.898 350.482 161.898 297.94C161.898 275.167 171.814 253.566 188.169 234.886C182.922 216.783 175.908 179.423 190.514 164.837C225.549 164.837 246.554 187.61 251.8 193.433C269.308 187.59 288.584 184.093 308.416 184.093C328.845 184.093 347.525 187.59 365.033 193.433C370.279 187.59 391.304 164.837 426.319 164.837C440.329 178.847 433.91 216.783 428.068 234.886C444.423 252.99 453.763 275.167 453.763 297.94C453.763 350.482 416.979 389.014 339.358 397.182C360.959 408.27 376.141 439.788 376.141 463.137V516.315C376.141 518.064 375.565 519.813 375.565 521.561C466.62 490.044 532 403.66 532 301.497C532 172.488 427.511 68 298.5 68Z" fill="black"/>
</g>
<defs>
<linearGradient id="paint0_linear_203_28" x1="-11.6084" y1="0.000104386" x2="1066.64" y2="1104.12" gradientUnits="userSpaceOnUse">
<stop offset="0.015625" stop-color="#B679D2"/>
<stop offset="0.203125" stop-color="#79AFD2"/>
<stop offset="0.453125" stop-color="#8FD89A"/>
<stop offset="0.708333" stop-color="#F0DD75"/>
<stop offset="1" stop-color="#E8735C"/>
</linearGradient>
<clipPath id="clip0_203_28">
<rect width="467" height="460" fill="white" transform="translate(65 68)"/>
</clipPath>
</defs>
</svg>
